<svg width="18" height="18" viewBox="0 0 18 18" fill="none" xmlns="http://www.w3.org/2000/svg">
    <path fill-rule="evenodd" clip-rule="evenodd"
        d="M0 9C0 4.02944 4.02944 0 9 0C13.9706 0 18 4.02944 18 9C18 13.9706 13.9706 18 9 18C4.02944 18 0 13.9706 0 9ZM1.2 9C1.2 5.08912 4.07827 1.85049 7.83206 1.28686L8.40001 1.57083V2.02919L7.53168 2.46335C7.34038 2.55901 7.21446 2.74926 7.20117 2.96273C7.18788 3.1762 7.28923 3.3806 7.46719 3.49924L9.26719 4.69924C9.36575 4.76495 9.48156 4.80001 9.60001 4.80001H10.2C10.5314 4.80001 10.8 4.53138 10.8 4.20001V3.60001H11.4V4.20001C11.4 4.35914 11.4632 4.51175 11.5757 4.62428L12 5.04854V5.75148L11.7515 6.00001H10.9417L8.66834 4.86335C8.49942 4.7789 8.3006 4.7789 8.13168 4.86335L7.05837 5.40001H5.40001C5.12469 5.40001 4.8847 5.58739 4.81793 5.85449L4.21793 8.25449C4.16681 8.45895 4.22672 8.67525 4.37575 8.82428L6.17575 10.6243C6.22135 10.6699 6.274 10.7078 6.33169 10.7367L7.20001 11.1708V12.6C7.20001 12.7591 7.26323 12.9118 7.37575 13.0243L7.80001 13.4485V14.4C7.80001 14.4932 7.8217 14.585 7.86336 14.6683L8.46336 15.8683C8.56499 16.0716 8.77275 16.2 9.00001 16.2H10.2C10.4006 16.2 10.588 16.0998 10.6992 15.9328L11.8992 14.1328C11.913 14.1121 11.9255 14.0906 11.9367 14.0683L12.5367 12.8683C12.5783 12.785 12.6 12.6932 12.6 12.6V11.6L14.28 9.36001C14.4164 9.1782 14.4383 8.93495 14.3367 8.73168L14.1708 8.40001H15C15.3314 8.40001 15.6 8.13138 15.6 7.80001V7.20001H16.5913C16.7278 7.77783 16.8 8.38048 16.8 9C16.8 13.3078 13.3078 16.8 9 16.8C4.69218 16.8 1.2 13.3078 1.2 9Z"
        fill="#1D1929" />
</svg>
    