<svg width="18" height="18" viewBox="0 0 18 18" fill="none" xmlns="http://www.w3.org/2000/svg">
    <path fill-rule="evenodd" clip-rule="evenodd"
        d="M0 1.8C0 0.805888 0.805887 0 1.8 0H16.2C17.1941 0 18 0.805887 18 1.8V16.2C18 17.1941 17.1941 18 16.2 18H1.8C0.805888 18 0 17.1941 0 16.2V1.8ZM6 6H4.8V4.8H6V6ZM4.8 13.2V7.2H6V13.2H4.8ZM10.2 8.4C9.20589 8.4 8.4 9.20589 8.4 10.2V13.2H7.2V7.2H8.4V7.79978C8.9014 7.42317 9.52464 7.2 10.2 7.2C11.8569 7.2 13.2 8.54315 13.2 10.2V13.2H12V10.2C12 9.20589 11.1941 8.4 10.2 8.4Z"
        fill="#1D1929" />
</svg>
    