<svg width="16" height="16" viewBox="0 0 16 16" fill="none" xmlns="http://www.w3.org/2000/svg">
<path d="M3.73345 15.4665V13.3326C3.73345 11.5653 5.16614 10.1332 6.93345 10.1332H9.06678C10.8341 10.1332 12.2668 11.5653 12.2668 13.3326V15.4665M8.00011 3.7332C6.82191 3.7332 5.86678 4.68833 5.86678 5.86654C5.86678 7.04474 6.82191 7.99987 8.00011 7.99987C9.17832 7.99987 10.1334 7.04474 10.1334 5.86654C10.1334 4.68833 9.17832 3.7332 8.00011 3.7332ZM1.60011 0.533203H14.4001C14.9892 0.533203 15.4668 1.01077 15.4668 1.59987V14.3999C15.4668 14.989 14.9892 15.4665 14.4001 15.4665H1.60011C1.01101 15.4665 0.533447 14.989 0.533447 14.3999V1.59987C0.533447 1.01077 1.01101 0.533203 1.60011 0.533203Z" stroke="#666666" stroke-linecap="square"/>
</svg>
