<svg
  width="4"
  height="14"
  viewBox="0 0 4 14"
  fill="none"
  xmlns="http://www.w3.org/2000/svg"
>
<path
    fill-rule="evenodd"
    clip-rule="evenodd"
    d="M0.933106 1.66628C0.933106 1.07717 1.41067 0.599609 1.99977 0.599609C2.58888 0.599609 3.06644 1.07717 3.06644 1.66628C3.06644 2.25538 2.58888 2.73294 1.99977 2.73294C1.41067 2.73294 0.933106 2.25538 0.933106 1.66628ZM0.933106 6.99961C0.933106 6.41051 1.41067 5.93294 1.99977 5.93294C2.58888 5.93294 3.06644 6.41051 3.06644 6.99961C3.06644 7.58871 2.58888 8.06628 1.99977 8.06628C1.41067 8.06628 0.933106 7.58871 0.933106 6.99961ZM0.933105 12.3329C0.933106 11.7438 1.41067 11.2663 1.99977 11.2663C2.58888 11.2663 3.06644 11.7438 3.06644 12.3329C3.06644 12.922 2.58888 13.3996 1.99977 13.3996C1.41067 13.3996 0.933105 12.922 0.933105 12.3329Z"
    fill="#4A4754"
  />
</svg>
