<svg width="16" height="12" viewBox="0 0 16 12" fill="none" xmlns="http://www.w3.org/2000/svg">
<path d="M11.7334 9.19935H13.3334V7.59935M11.7334 2.79935H13.3334V4.39935M4.26678 2.79935H2.66678V4.39935M2.66678 7.59935V9.19935H4.26678M8.00011 8.13268C6.82191 8.13268 5.86678 7.17756 5.86678 5.99935C5.86678 4.82114 6.82191 3.86602 8.00011 3.86602C9.17832 3.86602 10.1334 4.82114 10.1334 5.99935C10.1334 7.17756 9.17832 8.13268 8.00011 8.13268ZM1.60011 0.666016H14.4001C14.9892 0.666016 15.4668 1.14358 15.4668 1.73268V10.266C15.4668 10.8551 14.9892 11.3327 14.4001 11.3327H1.60011C1.01101 11.3327 0.533447 10.8551 0.533447 10.266V1.73268C0.533447 1.14358 1.01101 0.666016 1.60011 0.666016Z" stroke="#666666"/>
</svg>
