<svg width="20" height="20" viewBox="0 0 20 20" fill="none" xmlns="http://www.w3.org/2000/svg">
<path d="M8.66699 7.33268L10.0003 8.66602L11.3337 7.33268C12.07 6.5963 13.2639 6.5963 14.0003 7.33268C14.7367 8.06906 14.7367 9.26297 14.0003 9.99935L10.0003 13.9993L6.00033 9.99935C5.26395 9.26297 5.26395 8.06906 6.00033 7.33268C6.73671 6.5963 7.93061 6.5963 8.66699 7.33268Z" stroke="#1D1929" stroke-width="1.2"/>
<path d="M0.666992 9.99935C0.666992 15.154 4.84567 19.3327 10.0003 19.3327C15.155 19.3327 19.3337 15.154 19.3337 9.99935C19.3337 4.84469 15.155 0.666016 10.0003 0.666016C4.84567 0.666016 0.666992 4.84469 0.666992 9.99935Z" stroke="#1D1929" stroke-width="1.2"/>
</svg>
