<svg width="16" height="16" viewBox="0 0 16 16" fill="none" xmlns="http://www.w3.org/2000/svg">
<path d="M10.1334 15.4665H14.4001C14.9892 15.4665 15.4668 14.989 15.4668 14.3999V1.59987C15.4668 1.01077 14.9892 0.533203 14.4001 0.533203H10.1334C9.54434 0.533203 9.06678 1.01077 9.06678 1.59987V14.3999C9.06678 14.989 9.54434 15.4665 10.1334 15.4665ZM10.1334 15.4665H4.26678M6.93345 12.2665V15.4665M9.06678 5.86654H15.4668M10.6668 12.2665H13.8668M1.60011 3.7332H9.06678V12.2665H1.60011C1.01101 12.2665 0.533447 11.789 0.533447 11.1999V4.79987C0.533447 4.21077 1.01101 3.7332 1.60011 3.7332Z" stroke="#666666"/>
</svg>
