<svg width="13" height="16" viewBox="0 0 13 16" fill="none" xmlns="http://www.w3.org/2000/svg">
<path d="M0.5 11V10.5C0.223858 10.5 0 10.7239 0 11H0.5ZM12.5 11H13C13 10.7239 12.7761 10.5 12.5 10.5V11ZM12.5 15V15.5C12.7761 15.5 13 15.2761 13 15H12.5ZM0.5 15H0C0 15.2761 0.223858 15.5 0.5 15.5L0.5 15ZM0.5 11.5H12.5V10.5H0.5V11.5ZM12 11V15H13V11H12ZM12.5 14.5H0.5V15.5H12.5V14.5ZM1 15V11H0V15H1ZM7 11V7H6V11H7ZM6.5 0.5C4.567 0.5 3 2.067 3 4H4C4 2.61929 5.11929 1.5 6.5 1.5V0.5ZM10 4C10 2.067 8.433 0.5 6.5 0.5V1.5C7.88071 1.5 9 2.61929 9 4H10ZM6.5 7.5C8.433 7.5 10 5.933 10 4H9C9 5.38071 7.88071 6.5 6.5 6.5V7.5ZM6.5 6.5C5.11929 6.5 4 5.38071 4 4H3C3 5.933 4.567 7.5 6.5 7.5V6.5ZM2 9.5H4V8.5H2V9.5Z" fill="#1BD2A4"/>
</svg>
