<svg width="15" height="16" viewBox="0 0 15 16" fill="none" xmlns="http://www.w3.org/2000/svg">
    <path d="M1.5 11V10.5C1.22386 10.5 1 10.7239 1 11H1.5ZM13.5 11H14C14 10.7239 13.7761 10.5 13.5 10.5V11ZM13.5 15V15.5C13.7761 15.5 14 15.2761 14 15H13.5ZM1.5 15H1C1 15.2761 1.22386 15.5 1.5 15.5V15ZM1.5 11.5H13.5V10.5H1.5V11.5ZM13 11V15H14V11H13ZM13.5 14.5H1.5V15.5H13.5V14.5ZM2 15V11H1V15H2ZM8 11V7H7V11H8ZM7.5 0.5C5.567 0.5 4 2.067 4 4H5C5 2.61929 6.11929 1.5 7.5 1.5V0.5ZM11 4C11 2.067 9.433 0.5 7.5 0.5V1.5C8.88071 1.5 10 2.61929 10 4H11ZM7.5 7.5C9.433 7.5 11 5.933 11 4H10C10 5.38071 8.88071 6.5 7.5 6.5V7.5ZM7.5 6.5C6.11929 6.5 5 5.38071 5 4H4C4 5.933 5.567 7.5 7.5 7.5V6.5ZM3 9.5H5V8.5H3V9.5Z" fill="#1BD2A4"/>
    </svg>
    