<svg width="13" height="15" viewBox="0 0 13 15" fill="none" xmlns="http://www.w3.org/2000/svg">
    <path
        d="M1.5 0.5V0H1V0.5H1.5ZM11.5 0.5H12V0H11.5V0.5ZM3.94712 4.7238C4.07072 4.47686 3.97073 4.17648 3.7238 4.05288C3.47686 3.92928 3.17648 4.02927 3.05288 4.2762L3.94712 4.7238ZM1.50049 8.49475L1.05337 8.27095L0.906883 8.56361L1.11648 8.81497L1.50049 8.49475ZM6.50049 14.4908L6.11648 14.8111C6.21148 14.925 6.35215 14.9908 6.50049 14.9908C6.64882 14.9908 6.7895 14.925 6.8845 14.8111L6.50049 14.4908ZM11.5005 8.49475L11.8845 8.81497L12.0941 8.56356L11.9476 8.27087L11.5005 8.49475ZM9.94707 4.27611C9.82343 4.0292 9.52303 3.92928 9.27611 4.05293C9.0292 4.17657 8.92928 4.47697 9.05293 4.72389L9.94707 4.27611ZM7 9.49409L6.99995 8.99409L5.99995 8.99419L6 9.49419L7 9.49409ZM6.5 4.9967C4.01383 4.9967 2 2.98375 2 0.5H1C1 3.53665 3.46217 5.9967 6.5 5.9967V4.9967ZM1.5 1H11.5V0H1.5V1ZM11 0.5C11 2.98375 8.98617 4.9967 6.5 4.9967V5.9967C9.53783 5.9967 12 3.53665 12 0.5H11ZM3.05288 4.2762L1.05337 8.27095L1.94761 8.71855L3.94712 4.7238L3.05288 4.2762ZM1.11648 8.81497L6.11648 14.8111L6.8845 14.1706L1.8845 8.17454L1.11648 8.81497ZM6.8845 14.8111L11.8845 8.81497L11.1165 8.17454L6.11648 14.1706L6.8845 14.8111ZM11.9476 8.27087L9.94707 4.27611L9.05293 4.72389L11.0534 8.71864L11.9476 8.27087ZM7.00049 14.4908L7 9.49409L6 9.49419L6.00049 14.4909L7.00049 14.4908Z"
        fill="#77757F" />
</svg>
    