<svg
  width="16"
  height="16"
  viewBox="0 0 16 16"
  fill="none"
  xmlns="http://www.w3.org/2000/svg"
>
<path
    fill-rule="evenodd"
    clip-rule="evenodd"
    d="M12.8 2.13333H14.4C15.2837 2.13333 16 2.84968 16 3.73333V14.4C16 15.2837 15.2837 16 14.4 16H1.6C0.716345 16 0 15.2837 0 14.4V3.73333C0 2.84968 0.716345 2.13333 1.6 2.13333H3.2V0H4.26667V2.13333H11.7333V0H12.8V2.13333ZM6.4 8.53333H3.2V7.46667H6.4V8.53333ZM12.8 7.46667H9.6V8.53333H12.8V7.46667ZM6.4 11.7333H3.2V10.6667H6.4V11.7333ZM9.6 11.7333H12.8V10.6667H9.6V11.7333Z"
    fill="#4A4754"
  />
</svg>
