<svg
  width="16"
  height="16"
  viewBox="0 0 16 16"
  fill="none"
  xmlns="http://www.w3.org/2000/svg"
>
<path
    fill-rule="evenodd"
    clip-rule="evenodd"
    d="M0 1.59928C0 0.714908 0.715924 0 1.6 0H14.4C15.2841 0 16 0.714908 16 1.59928V11.193C16 12.0774 15.2841 12.7923 14.4 12.7923H8.17769L4.0532 15.8837C3.89158 16.0048 3.67539 16.0242 3.49475 15.9339C3.3141 15.8435 3.2 15.6589 3.2 15.4569V12.7923H1.6C0.715923 12.7923 0 12.0774 0 11.193V1.59928ZM4.26667 4.26387H11.7333V5.33053H4.26667V4.26387ZM4.26667 7.46178H9.60001V8.52845H4.26667V7.46178Z"
    fill="#4A4754"
  />
</svg>
