<svg
  width="18"
  height="18"
  viewBox="0 0 18 18"
  fill="none"
  xmlns="http://www.w3.org/2000/svg"
>
<path
    d="M4.7332 13.2413H5.3332V12.6413H4.7332V13.2413ZM4.7332 16.4392H4.1332C4.1332 16.6664 4.26157 16.8742 4.46479 16.9758C4.66802 17.0775 4.91123 17.0556 5.09305 16.9193L4.7332 16.4392ZM8.99987 13.2413V12.6413H8.79997L8.64002 12.7612L8.99987 13.2413ZM5.79987 5.17949H5.19987V6.37949H5.79987V5.17949ZM12.1999 6.37949H12.7999V5.17949H12.1999V6.37949ZM5.79987 8.37741H5.19987V9.57741H5.79987V8.37741ZM10.0665 9.57741H10.6665V8.37741H10.0665V9.57741ZM4.1332 13.2413V16.4392H5.3332V13.2413H4.1332ZM5.09305 16.9193L9.35972 13.7214L8.64002 12.7612L4.37335 15.9591L5.09305 16.9193ZM8.99987 13.8413H15.3999V12.6413H8.99987V13.8413ZM15.3999 13.8413C16.3207 13.8413 17.0665 13.0966 17.0665 12.1753H15.8665C15.8665 12.4331 15.6587 12.6413 15.3999 12.6413V13.8413ZM17.0665 12.1753V2.58158H15.8665V12.1753H17.0665ZM17.0665 2.58158C17.0665 1.66034 16.3207 0.915625 15.3999 0.915625V2.11563C15.6587 2.11563 15.8665 2.32385 15.8665 2.58158H17.0665ZM15.3999 0.915625H2.59987V2.11563H15.3999V0.915625ZM2.59987 0.915625C1.67902 0.915625 0.933203 1.66034 0.933203 2.58158H2.1332C2.1332 2.32385 2.34099 2.11563 2.59987 2.11563V0.915625ZM0.933203 2.58158V12.1753H2.1332V2.58158H0.933203ZM0.933203 12.1753C0.933203 13.0966 1.67902 13.8413 2.59987 13.8413V12.6413C2.34099 12.6413 2.1332 12.4331 2.1332 12.1753H0.933203ZM2.59987 13.8413H4.7332V12.6413H2.59987V13.8413ZM5.79987 6.37949H12.1999V5.17949H5.79987V6.37949ZM5.79987 9.57741H10.0665V8.37741H5.79987V9.57741Z"
    fill="#4A4754"
  />
</svg>
