<svg
  width="15"
  height="16"
  viewBox="0 0 15 16"
  fill="none"
  xmlns="http://www.w3.org/2000/svg"
>
<path
    fill-rule="evenodd"
    clip-rule="evenodd"
    d="M5 3V3.5H1.5C0.671573 3.5 0 4.17157 0 5V11.5H15V5C15 4.17157 14.3284 3.5 13.5 3.5H10V3C10 1.61929 8.88071 0.5 7.5 0.5C6.11929 0.5 5 1.61929 5 3ZM7.5 1.5C6.67157 1.5 6 2.17157 6 3V3.5H9V3C9 2.17157 8.32843 1.5 7.5 1.5Z"
    fill="#A5A3A9"
  />
<path
    d="M15 12.5H0V14C0 14.8284 0.671573 15.5 1.5 15.5H13.5C14.3284 15.5 15 14.8284 15 14V12.5Z"
    fill="#A5A3A9"
  />
</svg>
