<svg
  width="22"
  height="22"
  viewBox="0 0 22 22"
  fill="none"
  xmlns="http://www.w3.org/2000/svg"
>
<path
    d="M9.5334 8.06575L11.0001 9.53242L12.4667 8.06576C13.2767 7.25574 14.59 7.25574 15.4001 8.06575C16.2101 8.87577 16.2101 10.1891 15.4001 10.9991L11.0001 15.3991L6.60006 10.9991C5.79005 10.1891 5.79005 8.87577 6.60006 8.06575C7.41008 7.25574 8.72338 7.25574 9.5334 8.06575Z"
    stroke="#A5A3A9"
  />
<path
    d="M0.733398 10.9991C0.733398 16.6692 5.32994 21.2658 11.0001 21.2658C16.6702 21.2658 21.2667 16.6692 21.2667 10.9991C21.2667 5.32897 16.6702 0.732422 11.0001 0.732422C5.32994 0.732422 0.733398 5.32897 0.733398 10.9991Z"
    stroke="#A5A3A9"
  />
</svg>
