<svg
  width="20"
  height="20"
  viewBox="0 0 20 20"
  fill="none"
  xmlns="http://www.w3.org/2000/svg"
>
<path
    fill-rule="evenodd"
    clip-rule="evenodd"
    d="M6.66667 3.33333V4H2C0.895431 4 0 4.89543 0 6V18C0 19.1046 0.895431 20 2 20H18C19.1046 20 20 19.1046 20 18V6C20 4.89543 19.1046 4 18 4H13.3333V3.33333C13.3333 1.49238 11.8409 0 10 0C8.15905 0 6.66667 1.49238 6.66667 3.33333ZM10 1.33333C8.89543 1.33333 8 2.22876 8 3.33333V4H12V3.33333C12 2.22876 11.1046 1.33333 10 1.33333ZM0.881185 9.8232C6.0311 14.577 13.969 14.577 19.1189 9.8232L18.2145 8.84347C13.5754 13.1258 6.42472 13.1258 1.78556 8.84347L0.881185 9.8232Z"
    fill="#1BD2A4"
  />
</svg>
