<svg
  width="18"
  height="18"
  viewBox="0 0 18 18"
  fill="none"
  xmlns="http://www.w3.org/2000/svg"
>
<path
    d="M4.7332 6.84827L4.22701 6.52614L4.1332 6.67355V6.84827H4.7332ZM7.61065 2.32657L8.11685 2.64869L7.61065 2.32657ZM10.4554 3.93723L9.91873 3.6689V3.6689L10.4554 3.93723ZM8.99987 6.84827L8.46321 6.57994C8.37022 6.76593 8.38016 6.98682 8.48948 7.16371C8.5988 7.3406 8.79192 7.44827 8.99987 7.44827V6.84827ZM16.4665 12.1816L16.9465 12.5416L17.0665 12.3816V12.1816H16.4665ZM13.9065 15.5949L14.3865 15.9549L14.3865 15.9549L13.9065 15.5949ZM9.83355 1.80181L10.1423 1.28732L10.1422 1.28732L9.83355 1.80181ZM0.933203 6.31494V16.9816H2.1332V6.31494H0.933203ZM5.2394 7.17039L8.11685 2.64869L7.10445 2.00444L4.22701 6.52614L5.2394 7.17039ZM9.91873 3.6689L8.46321 6.57994L9.53653 7.1166L10.992 4.20556L9.91873 3.6689ZM8.99987 7.44827H14.3332V6.24827H8.99987V7.44827ZM15.8665 8.9816V12.1816H17.0665V8.9816H15.8665ZM15.9865 11.8216L13.4265 15.2349L14.3865 15.9549L16.9465 12.5416L15.9865 11.8216ZM12.1999 15.8483H6.86654V17.0483H12.1999V15.8483ZM5.3332 14.3149V6.84827H4.1332V14.3149H5.3332ZM14.3332 7.44827C15.18 7.44827 15.8665 8.13477 15.8665 8.9816H17.0665C17.0665 7.47202 15.8428 6.24827 14.3332 6.24827V7.44827ZM6.86654 15.8483C6.0197 15.8483 5.3332 15.1618 5.3332 14.3149H4.1332C4.1332 15.8245 5.35696 17.0483 6.86654 17.0483V15.8483ZM9.52485 2.31631C9.98937 2.59502 10.161 3.18438 9.91873 3.6689L10.992 4.20556C11.5147 3.16019 11.1445 1.88864 10.1423 1.28732L9.52485 2.31631ZM13.4265 15.2349C13.137 15.621 12.6825 15.8483 12.1999 15.8483V17.0483C13.0602 17.0483 13.8703 16.6432 14.3865 15.9549L13.4265 15.2349ZM8.11685 2.64869C8.41853 2.17461 9.043 2.0272 9.52485 2.31631L10.1422 1.28732C9.10264 0.663551 7.75535 0.981606 7.10445 2.00444L8.11685 2.64869Z"
    fill="#4A4754"
  />
</svg>
