<svg
  width="16"
  height="17"
  viewBox="0 0 16 17"
  fill="none"
  xmlns="http://www.w3.org/2000/svg"
>
<path
    d="M2.66667 16.9824C1.19391 16.9824 0 15.7885 0 14.3158C0 13.0256 0.916139 11.9495 2.13333 11.7024V6.84909C2.13333 4.78722 3.8048 3.11575 5.86667 3.11575H7.77909L6.55621 1.89288L7.31046 1.13863L9.82091 3.64909L7.31046 6.15954L6.55621 5.4053L7.77909 4.18242H5.86667C4.39391 4.18242 3.2 5.37633 3.2 6.84909V11.7024C4.41719 11.9495 5.33333 13.0256 5.33333 14.3158C5.33333 15.7885 4.13943 16.9824 2.66667 16.9824Z"
    fill="white"
  />
<path
    d="M9.44379 16.072L8.68954 16.8262L6.17909 14.3158L8.68954 11.8053L9.44379 12.5595L8.22091 13.7824H10.1333C11.6061 13.7824 12.8 12.5885 12.8 11.1158V6.26241C11.5828 6.01533 10.6667 4.9392 10.6667 3.64909C10.6667 2.17633 11.8606 0.982422 13.3333 0.982422C14.8061 0.982422 16 2.17633 16 3.64909C16 4.9392 15.0839 6.01533 13.8667 6.26241V11.1158C13.8667 13.1776 12.1952 14.8491 10.1333 14.8491H8.22091L9.44379 16.072Z"
    fill="white"
  />
</svg>
