<svg
  width="15"
  height="16"
  viewBox="0 0 15 16"
  fill="none"
  xmlns="http://www.w3.org/2000/svg"
>
<path d="M10 12.5H13V11.5H10V12.5Z" fill="#A5A3A9" />
<path
    fill-rule="evenodd"
    clip-rule="evenodd"
    d="M9.5 0.5C8.67157 0.5 8 1.17157 8 2V3.5H1.5C0.671573 3.5 0 4.17157 0 5V11C0 11.8284 0.671573 12.5 1.5 12.5H6V14.5H4V15.5H13.5C14.3284 15.5 15 14.8284 15 14V2C15 1.17157 14.3284 0.5 13.5 0.5H9.5ZM8.08535 14.5H7V12.5H8V14C8 14.1753 8.03008 14.3436 8.08535 14.5ZM9.5 14.5H13.5C13.7761 14.5 14 14.2761 14 14V6.5H9V14C9 14.2761 9.22386 14.5 9.5 14.5ZM9 5.5H14V2C14 1.72386 13.7761 1.5 13.5 1.5H9.5C9.22386 1.5 9 1.72386 9 2V5.5Z"
    fill="#A5A3A9"
  />
</svg>
