<svg
  width="15"
  height="16"
  viewBox="0 0 15 16"
  fill="none"
  xmlns="http://www.w3.org/2000/svg"
>
<g clip-path="url(#clip0_1406_193339)">
<path
      d="M7.49999 15.5C11.6421 15.5 15 12.1421 15 7.99999C15 3.85786 11.6421 0.5 7.49999 0.5C3.35786 0.5 0 3.85786 0 7.99999C0 12.1421 3.35786 15.5 7.49999 15.5Z"
      fill="#FFE17D"
    />
<path
      d="M8.5887 14.412C4.44656 14.412 1.0887 11.0541 1.0887 6.912C1.0887 5.11824 1.7192 3.47223 2.76964 2.18164C1.07997 3.55684 0 5.65232 0 8.0007C0 12.1428 3.35786 15.5007 7.5 15.5007C9.84841 15.5007 11.9439 14.4207 13.3191 12.731C12.0285 13.7815 10.3825 14.412 8.5887 14.412Z"
      fill="#FFD164"
    />
<path
      d="M5.32263 15.501C5.58876 15.501 5.80649 15.2832 5.80649 15.0171C5.80649 14.751 5.58876 14.5332 5.32263 14.5332H5.56456C5.83069 14.5332 6.04843 14.3155 6.04843 14.0494C6.04843 13.7832 5.83069 13.5655 5.56456 13.5655H5.80649C6.07263 13.5655 6.29036 13.3478 6.29036 13.0816C6.29036 12.8155 6.07263 12.5978 5.80649 12.5978H8.46779C8.73504 12.5978 8.95166 12.3811 8.95166 12.1139C8.95166 11.8466 8.73501 11.63 8.46779 11.63H4.11296C3.71212 11.63 3.38716 11.3051 3.38716 10.9042V9.45262C3.38716 9.18537 3.17051 8.96875 2.90329 8.96875C2.63604 8.96875 2.41942 9.1854 2.41942 9.45262V10.637C2.41942 10.9666 2.30725 11.2864 2.10132 11.5438L1.87579 11.8257C1.60125 12.1689 1.45166 12.5953 1.45166 13.0348V14.0494C1.45166 14.8511 2.10158 15.501 2.90326 15.501H5.32263V15.501Z"
      fill="#FFD164"
    />
<path
      d="M5.80649 15.0152H5.32263H2.90326C2.36965 15.0152 1.93553 14.581 1.93553 14.0474V13.0328C1.93553 12.7044 2.0485 12.3824 2.2536 12.126L2.47916 11.8441C2.75265 11.5022 2.90326 11.0728 2.90326 10.635V8.9668C2.63604 8.9668 2.41939 9.18345 2.41939 9.45066V10.635C2.41939 10.9646 2.30722 11.2844 2.10132 11.5418L1.87579 11.8237C1.60125 12.1669 1.45166 12.5933 1.45166 13.0328V14.0475C1.45166 14.8492 2.10155 15.4991 2.90326 15.4991H5.32263C5.58873 15.499 5.80649 15.2813 5.80649 15.0152Z"
      fill="#FFC350"
    />
<path
      d="M8.95179 12.1113H5.56469C5.43106 12.1113 5.32275 12.2196 5.32275 12.3533C5.32275 12.4869 5.43106 12.5952 5.56469 12.5952H5.80662H8.46792C8.73517 12.5952 8.95179 12.3786 8.95179 12.1113Z"
      fill="#FFC350"
    />
<path
      d="M5.08057 13.322C5.08057 13.4556 5.18888 13.5639 5.3225 13.5639H5.56443H5.80637C6.0725 13.5639 6.29023 13.3462 6.29023 13.0801H5.3225C5.18888 13.0801 5.08057 13.1884 5.08057 13.322Z"
      fill="#FFC350"
    />
<path
      d="M4.83887 14.2888C4.83887 14.4224 4.94718 14.5307 5.0808 14.5307H5.32273H5.56467C5.8308 14.5307 6.04853 14.313 6.04853 14.0469H5.0808C4.94718 14.0469 4.83887 14.1552 4.83887 14.2888Z"
      fill="#FFC350"
    />
<path
      d="M8.70883 10.4811C8.66324 10.4811 8.61692 10.4707 8.57321 10.4487C8.55666 10.4405 6.89784 9.61592 5.06421 9.57385C4.89716 9.57007 4.76485 9.43161 4.76863 9.26459C4.77241 9.09766 4.9111 8.95935 5.07789 8.96925C7.05212 9.01449 8.77331 9.87227 8.84562 9.90877C8.99471 9.98392 9.05447 10.1657 8.97936 10.3148C8.92621 10.4203 8.81963 10.4811 8.70883 10.4811Z"
      fill="#AA7346"
    />
<path
      d="M5.56412 4.43209C5.49821 4.43209 5.43182 4.41059 5.3763 4.36641C5.33072 4.33061 4.29041 3.53227 3.03824 4.15826C2.88938 4.23302 2.70701 4.1722 2.63256 4.02299C2.55791 3.87355 2.61838 3.692 2.76794 3.6172C4.37409 2.81344 5.69787 3.84897 5.75338 3.8935C5.88381 3.9978 5.90482 4.18811 5.80064 4.31854C5.74087 4.39322 5.65298 4.43209 5.56412 4.43209Z"
      fill="#AA7346"
    />
<path
      d="M8.95116 4.91695C8.80986 4.91695 8.68371 4.81749 8.65488 4.67373C8.62204 4.50999 8.72836 4.35064 8.8921 4.31792L11.3115 3.83405C11.4761 3.80133 11.6344 3.90741 11.6673 4.07127C11.7001 4.23501 11.5938 4.39435 11.4301 4.42708L9.01069 4.91095C8.99062 4.91493 8.97079 4.91695 8.95116 4.91695Z"
      fill="#AA7346"
    />
<path
      d="M4.45326 6.59363C4.12174 6.55276 3.8861 6.25086 3.92697 5.91933L3.98618 5.4391C4.02705 5.10758 4.32895 4.87194 4.66048 4.91281C4.992 4.95368 5.22763 5.25558 5.18676 5.58711L5.12756 6.06734C5.08669 6.39886 4.78478 6.6345 4.45326 6.59363Z"
      fill="#7D5046"
    />
<path
      d="M4.66053 4.91275C4.61939 4.90768 4.57876 4.90695 4.53897 4.91006L4.43685 5.73837C4.41232 5.93729 4.55368 6.11843 4.75261 6.14296C4.95153 6.16748 5.13268 6.02612 5.1572 5.82719L5.18682 5.58708C5.22769 5.25552 4.99208 4.95362 4.66053 4.91275Z"
      fill="#9C6846"
    />
<path
      d="M9.51869 7.12293C9.18716 7.08206 8.95153 6.78015 8.9924 6.44863L9.05161 5.96839C9.09248 5.63687 9.39438 5.40124 9.7259 5.44211C10.0574 5.48298 10.2931 5.78488 10.2522 6.1164L10.193 6.59664C10.1521 6.92819 9.85021 7.16382 9.51869 7.12293Z"
      fill="#7D5046"
    />
<path
      d="M9.72596 5.44205C9.68482 5.43698 9.64419 5.43625 9.60441 5.43935L9.50228 6.26766C9.47775 6.46659 9.61911 6.64773 9.81804 6.67225C10.017 6.69677 10.1981 6.55542 10.2226 6.35649L10.2522 6.11637C10.2931 5.78482 10.0575 5.48295 9.72596 5.44205Z"
      fill="#9C6846"
    />
</g>
<defs>
<clipPath id="clip0_1406_193339">
<rect width="15" height="15" fill="white" transform="translate(0 0.5)" />
</clipPath>
</defs>
</svg>
